<svg xmlns="http://www.w3.org/2000/svg" width="200" height="50" viewBox="0 0 382.055 83.974"><defs><style>.a{fill:#fff;}.b{fill:#fca121;}</style></defs><g transform="translate(191.028 41.987)"><g transform="translate(-191.028 -41.987)"><path class="a" d="M16.205,34.752C5.762,34.752,0,28.63,0,18.006S5.222,0,17.466,0a34.211,34.211,0,0,1,8.283,1.08l-.54,3.241a28.63,28.63,0,0,0-8.643-1.44c-9,0-12.964,6.662-12.964,14.585s4.5,14.045,13.5,14.045a20.887,20.887,0,0,0,8.643-1.981l.36,3.061a26.469,26.469,0,0,1-9.9,1.8" transform="translate(0 0)"/><path class="a" d="M32.8,34.592c-8.643,0-13.5-4.141-13.5-12.064V.2h3.6V22.347c0,6.482,3.961,9.363,10.263,9.363s10.444-4.321,10.444-10.263V.2h3.421V21.447c0,7.022-3.961,13.324-14.225,13.324" transform="translate(15.452 0.16)"/><path class="a" d="M57.106,34.231,43.6,18.386h-.18V34.231H40V.2h8.1c7.563,0,11.524,3.061,11.524,8.463s-5.222,9.9-12.064,9.9L50.8,21.807,61.787,34.231ZM47.563,2.721H43.421v12.6h4.321c5.042,0,8.1-2.7,8.1-6.842S52.6,2.361,47.382,2.361" transform="translate(32.024 0.16)"/><path class="a" d="M73.386,34.231l-13.5-15.845H59.7V34.231H56.1V.2h8.1c7.563,0,11.524,3.061,11.524,8.463s-5.222,9.9-12.064,9.9L66.9,21.987,77.887,34.412ZM64.023,2.721H59.881v12.6H64.2c5.042,0,8.1-2.7,8.1-6.842s-3.241-6.122-8.463-6.122" transform="translate(44.914 0.16)"/><path class="a" d="M72.5,34.231V.2H89.966V2.9H75.921V15.145H89.246v2.881H75.921V31.351H89.966v2.881Z" transform="translate(58.044 0.16)"/><path class="a" d="M109.588,34.231,94.282,11a76.192,76.192,0,0,1-4.321-7.2h0c.18,2.521.36,5.582.36,10.083V34.231H86.9V.2h4.5l15.305,23.048c1.44,2.341,3.061,4.862,4.5,7.2h0c-.18-2.521-.36-7.022-.36-13.5V.2h3.6V34.231Z" transform="translate(69.573 0.16)"/><path class="a" d="M122.105,34.752c-10.444,0-16.205-6.122-16.205-16.746S111.122,0,123.366,0a34.212,34.212,0,0,1,8.283,1.08l-.36,3.241a28.629,28.629,0,0,0-8.643-1.44c-9,0-12.964,6.662-12.964,14.585s4.5,14.045,13.5,14.045a20.707,20.707,0,0,0,8.643-1.981l.36,3.061a26.469,26.469,0,0,1-9.9,1.8" transform="translate(84.784 0)"/><path class="a" d="M137.105,21.807V34.231h-3.6V21.807L121.8.2h3.961l6.662,12.424a64.444,64.444,0,0,1,2.881,6.122h0a58.4,58.4,0,0,1,3.421-6.662L145.208.2h3.781Z" transform="translate(97.514 0.16)"/><path class="a" d="M148.4,34.412h-8.1V.2h9.723c7.743,0,10.8,3.421,10.8,8.1s-2.341,6.662-6.482,8.1h0c5.042.9,7.383,4.141,7.383,7.923S159.747,34.412,148.4,34.412m.72-31.511H143.9V15.145h3.421c6.3,0,9.9-2.161,9.9-6.662s-1.8-5.582-8.1-5.582m-1.981,15.125h-3.421V31.17l4.862.36c6.482,0,9.363-3.061,9.363-7.2s-4.862-6.482-10.8-6.482" transform="translate(112.325 0.16)"/><rect class="a" width="3.601" height="34.049" transform="translate(283.236 0.36)"/><path class="a" d="M182.786,34.231l-13.5-15.845h-.18V34.231h-3.6V.2h8.1c7.563,0,11.524,3.061,11.524,8.463s-5.222,9.9-12.064,9.9l3.241,3.421,10.984,12.424ZM173.243,2.721H169.1v12.6h4.322c5.042,0,8.1-2.7,8.1-6.842s-3.241-6.122-8.463-6.122" transform="translate(132.501 0.16)"/><path class="a" d="M190.083,34.412H181.8V.2h9.9c11.344,0,18.186,5.042,18.186,16.926S201.607,34.592,189.9,34.592m.9-31.511h-5.582v28.27h5.222c9.363,0,15.665-4.321,15.665-14.4s-5.222-14.4-15.305-14.4" transform="translate(145.551 0.16)"/><path class="b" d="M233.231,56.858a12.964,12.964,0,0,1,10.984,2.521,3.6,3.6,0,0,0,2.341.72c3.961.54,8.283,1.981,8.643,3.241s-10.984.18-12.064,1.08c-6.122,5.222-22.688,11.164-35.832,9.9-6.482-.72-7.743-1.26-12.964-.18s-21.067,6.482-20.167,5.762S202.8,67.3,200.46,62.439c-1.08-2.341-7.743-7.743-18.726-8.823a193.567,193.567,0,0,1-29.71-4.862c-8.283-1.981-9.723-4.862-9.723-4.862s2.341,2.161,16.566,4.862,38.173,1.26,45.735,2.881a23.948,23.948,0,0,1,11.524,6.482c10.8-12.424,34.752-26.469,43.035-37.633S264.741,5.54,264.741,5a21.247,21.247,0,0,1-.9,24.308c-11.164,15.665-20.347,10.8-30.43,27.729Z" transform="translate(113.927 4.003)"/></g></g></svg>